<?xml version="1.0" encoding="UTF-8"?>
<!DOCTYPE svg PUBLIC "-//W3C//DTD SVG 1.1//EN" "http://www.w3.org/Graphics/SVG/1.1/DTD/svg11.dtd">
<!-- Creator: CorelDRAW X8 -->
<svg xmlns="http://www.w3.org/2000/svg" xml:space="preserve" width="5in" height="5in" version="1.1" style="shape-rendering:geometricPrecision; text-rendering:geometricPrecision; image-rendering:optimizeQuality; fill-rule:evenodd; clip-rule:evenodd"
viewBox="0 0 5000 5000"
 xmlns:xlink="http://www.w3.org/1999/xlink">
 <defs>
  <style type="text/css">
   <![CDATA[
    .fil0 {fill:#D1D1D1}
   ]]>
  </style>
 </defs>
 <g id="Layer_x0020_1">
  <metadata id="CorelCorpID_0Corel-Layer"/>
  <g id="_946003248">
   <g>
    <g>
     <path class="fil0" d="M2167 3111l-843 -832c-55,-55 -128,-86 -205,-86 -54,0 -105,15 -149,41l0 -1002c0,-51 -14,-99 -37,-141 15,-5 31,-8 48,-8 82,0 149,67 149,149l0 737c0,39 32,71 71,71 39,0 71,-32 71,-71l0 -737c0,-160 -131,-291 -291,-291 -54,0 -106,15 -151,43 -44,-27 -96,-43 -151,-43 -161,0 -291,131 -291,291l1 1397c0,63 23,151 54,206 1,1 1,2 2,2l872 1409c19,33 35,97 35,135l0 267c0,39 32,71 71,71 39,0 71,-32 71,-71l0 -267c0,-63 -23,-151 -54,-206 0,-1 -1,-1 -1,-2l-873 -1409c-19,-33 -35,-97 -35,-135l-1 -1397c0,-82 66,-149 149,-149 82,0 149,67 149,149l0 1252c0,2 0,4 0,6 1,72 30,145 85,200l677 677c28,28 73,28 100,0 28,-28 28,-73 0,-100l-677 -677c-28,-28 -43,-66 -43,-106 0,-40 15,-77 43,-105 28,-28 66,-44 106,-44 40,0 77,16 106,44l842 833c94,93 173,285 173,417l0 1020c0,39 32,71 71,71 39,0 71,-32 71,-71l0 -1020c0,-170 -94,-397 -215,-518z"/>
    </g>
   </g>
   <g>
    <g>
     <path class="fil0" d="M4321 941c-55,0 -107,16 -151,43 -45,-28 -97,-43 -151,-43 -160,0 -291,131 -291,291l0 737c0,39 32,71 71,71 39,0 71,-32 71,-71l0 -737c0,-82 67,-149 149,-149 17,0 33,3 48,8 -23,42 -37,90 -37,141l0 1002c-44,-26 -95,-41 -149,-41 -77,0 -150,31 -205,85l-844 834c-120,120 -214,347 -214,517l0 1020c0,39 32,71 71,71 39,0 71,-32 71,-71l0 -1020c0,-132 79,-324 172,-417l844 -833c28,-28 65,-44 105,-44 40,0 78,16 106,44 28,28 43,65 43,105 0,40 -15,78 -43,106l-677 677c-28,27 -28,72 0,100 27,28 72,28 100,0l677 -677c55,-55 84,-128 85,-200 0,-2 0,-4 0,-6l0 -1252c0,-82 67,-149 149,-149 83,0 149,67 149,149l-1 1397c0,38 -16,102 -35,135l-873 1409c0,1 -1,1 -1,2 -31,55 -54,143 -54,206l0 267c0,39 32,71 71,71 39,0 71,-32 71,-71l0 -267c0,-38 16,-102 35,-135l872 -1409c1,0 1,-1 2,-2 31,-55 54,-143 54,-206l1 -1397c0,-160 -130,-291 -291,-291z"/>
    </g>
   </g>
   <g>
    <g>
     <path class="fil0" d="M3516 800c39,0 70,-32 70,-71l0 -378c0,-39 -31,-71 -70,-71l-2032 0c-39,0 -70,32 -70,71l0 378c0,39 31,71 70,71l24 0 0 141 -24 0c-39,0 -70,32 -70,71l0 378c0,39 31,71 70,71l24 0 0 142 -24 0c-39,0 -70,31 -70,70l0 378c0,39 31,71 70,71l2032 0c39,0 70,-32 70,-71l0 -378c0,-39 -31,-70 -70,-70l-24 0 0 -142 24 0c39,0 70,-32 70,-71l0 -378c0,-39 -31,-71 -70,-71l-24 0 0 -141 24 0 0 0zm-71 1180l-1890 0 0 -236 1890 0 0 236zm0 -661l-307 0c-39,0 -71,32 -71,71 0,39 32,71 71,71l212 0 0 142 -1700 0 0 -142 1204 0c39,0 71,-32 71,-71 0,-39 -32,-71 -71,-71l-1299 0 0 -236 1890 0 0 236zm-1795 -378l0 -141 1700 0 0 141 -1700 0zm1795 -283l-1890 0 0 -236 1890 0 0 236z"/>
    </g>
   </g>
   <g>
   </g>
   <g>
   </g>
   <g>
   </g>
   <g>
   </g>
   <g>
   </g>
   <g>
   </g>
   <g>
   </g>
   <g>
   </g>
   <g>
   </g>
   <g>
   </g>
   <g>
   </g>
   <g>
   </g>
   <g>
   </g>
   <g>
   </g>
   <g>
   </g>
  </g>
 </g>
</svg>
