<?xml version="1.0" encoding="UTF-8"?>
<!DOCTYPE svg PUBLIC "-//W3C//DTD SVG 1.1//EN" "http://www.w3.org/Graphics/SVG/1.1/DTD/svg11.dtd">
<!-- Creator: CorelDRAW X8 -->
<svg xmlns="http://www.w3.org/2000/svg" xml:space="preserve" width="5in" height="5in" version="1.1" style="shape-rendering:geometricPrecision; text-rendering:geometricPrecision; image-rendering:optimizeQuality; fill-rule:evenodd; clip-rule:evenodd"
viewBox="0 0 5000 5000"
 xmlns:xlink="http://www.w3.org/1999/xlink">
 <defs>
  <style type="text/css">
   <![CDATA[
    .fil0 {fill:#D1D1D1}
   ]]>
  </style>
 </defs>
 <g id="Layer_x0020_1">
  <metadata id="CorelCorpID_0Corel-Layer"/>
  <g id="_943433568">
   <g id="_303570144">
    <g>
     <g>
      <g>
       <path class="fil0" d="M1573 2037c-341,0 -618,277 -618,617 0,341 277,618 618,618 341,0 618,-277 618,-618 0,-340 -277,-617 -618,-617zm0 1081c-256,0 -464,-208 -464,-464 0,-255 208,-463 464,-463 256,0 464,208 464,463 0,256 -208,464 -464,464z"/>
       <path class="fil0" d="M1650 2349l0 -81 -154 0 0 81c-88,18 -155,96 -155,190 0,106 87,193 193,193l78 0c21,0 38,17 38,38 0,22 -17,39 -38,39l-78 0c-21,0 -38,-17 -38,-39l0 -38 -155 0 0 38c0,94 67,172 155,190l0 81 154 0 0 -81c88,-18 155,-96 155,-190 0,-106 -87,-193 -193,-193l-78 0c-21,0 -38,-17 -38,-38 0,-22 17,-39 38,-39l78 0c21,0 38,17 38,39l0 38 155 0 0 -38c0,-94 -67,-172 -155,-190z"/>
       <path class="fil0" d="M3118 1955l0 82 154 0 0 -82c89,-18 155,-96 155,-189 0,-106 -87,-193 -193,-193l-77 0c-22,0 -39,-17 -39,-39 0,-21 17,-38 39,-38l77 0c21,0 38,17 38,38l0 39 155 0 0 -39c0,-93 -66,-171 -155,-189l0 -81 -154 0 0 81c-88,18 -155,96 -155,189 0,107 87,194 194,194l77 0c21,0 38,17 38,38 0,21 -17,39 -38,39l-77 0c-22,0 -39,-18 -39,-39l0 -38 -155 0 0 38c0,93 67,171 155,189z"/>
       <path class="fil0" d="M2114 1341c341,0 618,-277 618,-618 0,-341 -277,-618 -618,-618 -341,0 -618,277 -618,618 0,341 277,618 618,618zm0 -1081c255,0 463,208 463,463 0,256 -208,464 -463,464 -256,0 -464,-208 -464,-464 0,-255 208,-463 464,-463z"/>
       <path class="fil0" d="M2037 1028l0 81 154 0 0 -81c88,-18 155,-96 155,-189 0,-106 -87,-193 -194,-193l-77 0c-21,0 -38,-17 -38,-39 0,-21 17,-38 38,-38l77 0c22,0 39,17 39,38l0 39 155 0 0 -39c0,-93 -67,-171 -155,-189l0 -81 -154 0 0 81c-89,18 -155,96 -155,189 0,107 87,193 193,193l77 0c22,0 39,18 39,39 0,21 -17,39 -39,39l-77 0c-21,0 -38,-18 -38,-39l0 -39 -155 0 0 39c0,93 66,171 155,189z"/>
       <path class="fil0" d="M4586 2886l-232 0 0 -695c0,-213 -173,-386 -386,-386l-175 0c13,-50 20,-101 20,-155 0,-340 -277,-618 -618,-618 -341,0 -618,278 -618,618 0,54 8,105 21,155l-1566 0c-213,0 -386,173 -386,386l0 1854c0,213 173,386 386,386l696 0 0 309 -155 0 0 155 1854 0 0 -155 -155 0 0 -309 696 0c213,0 386,-173 386,-386l0 -387 88 0 144 -47 0 125 309 0 0 -155 -155 0 0 -695 155 0 0 -155 -309 0 0 155zm-1391 -1699c256,0 464,208 464,463 0,256 -208,464 -464,464 -255,0 -463,-208 -463,-464 0,-255 208,-463 463,-463zm-77 3553l-1236 0 0 -309 1236 0 0 309zm1082 -695c0,128 -104,232 -232,232l-2936 0c-128,0 -232,-104 -232,-232l0 -77 3400 0 0 77zm0 -232l-3400 0 0 -1622c0,-128 104,-232 232,-232l1629 0c107,185 306,309 534,309 228,0 428,-124 535,-309l238 0c128,0 232,104 232,232l0 680 -191 -127 -651 -230c-62,-22 -129,-18 -187,12 -59,30 -102,81 -121,143 -33,109 16,227 117,280l167 89 -243 1 -100 -250c-33,-82 -111,-135 -199,-135 -69,0 -135,34 -175,90 -40,56 -51,128 -29,194l23 69 -169 -93c-54,-29 -118,-35 -177,-16 -58,20 -106,63 -131,119 -50,110 -5,238 103,291l382 188 791 161 790 1 0 155zm-1275 -773l-140 0 -51 -152c-6,-18 -3,-38 9,-54 25,-37 88,-29 104,13l78 193zm1661 408l-169 56 -984 0 -755 -151 -372 -184c-33,-16 -47,-55 -32,-88 8,-17 22,-30 40,-36 18,-6 37,-4 54,5l265 145 733 0 305 -153 -432 -229c-35,-19 -52,-60 -41,-99 7,-22 22,-40 43,-50 21,-11 44,-12 66,-5l624 219 244 162 411 0 0 408z"/>
       <rect class="fil0" x="414" y="955" width="154" height="154"/>
       <rect class="fil0" transform="matrix(-0.634999 -0.634999 0.634999 -0.634999 273.167 1232.04)" width="172" height="172"/>
       <rect class="fil0" x="105" y="1264" width="154" height="154"/>
       <rect class="fil0" transform="matrix(-0.634999 -0.634999 0.634999 -0.634999 273.118 1668.92)" width="172" height="172"/>
       <rect class="fil0" x="414" y="1573" width="154" height="154"/>
       <rect class="fil0" transform="matrix(0.634999 0.634999 -0.634999 0.634999 709.926 1450.46)" width="172" height="172"/>
       <rect class="fil0" x="723" y="1264" width="154" height="154"/>
       <rect class="fil0" transform="matrix(0.634999 0.634999 -0.634999 0.634999 709.974 1013.5)" width="172" height="172"/>
       <rect class="fil0" x="4431" y="260" width="154" height="154"/>
       <rect class="fil0" transform="matrix(0.634999 0.634999 -0.634999 0.634999 4289.85 318.359)" width="172" height="172"/>
       <rect class="fil0" x="4122" y="569" width="154" height="154"/>
       <rect class="fil0" transform="matrix(-0.634999 -0.634999 0.634999 -0.634999 4289.92 973.559)" width="172" height="172"/>
       <rect class="fil0" x="4431" y="878" width="154" height="154"/>
       <rect class="fil0" transform="matrix(0.634999 0.634999 -0.634999 0.634999 4726.86 754.944)" width="172" height="172"/>
       <rect class="fil0" x="4740" y="569" width="154" height="154"/>
       <rect class="fil0" transform="matrix(0.634999 0.634999 -0.634999 0.634999 4726.93 318.295)" width="172" height="172"/>
      </g>
     </g>
    </g>
    <g>
    </g>
    <g>
    </g>
    <g>
    </g>
    <g>
    </g>
    <g>
    </g>
    <g>
    </g>
    <g>
    </g>
    <g>
    </g>
    <g>
    </g>
    <g>
    </g>
    <g>
    </g>
    <g>
    </g>
    <g>
    </g>
    <g>
    </g>
    <g>
    </g>
   </g>
  </g>
 </g>
</svg>
