<?xml version="1.0" encoding="UTF-8"?>
<!DOCTYPE svg PUBLIC "-//W3C//DTD SVG 1.1//EN" "http://www.w3.org/Graphics/SVG/1.1/DTD/svg11.dtd">
<!-- Creator: CorelDRAW X8 -->
<svg xmlns="http://www.w3.org/2000/svg" xml:space="preserve" width="5in" height="5in" version="1.1" style="shape-rendering:geometricPrecision; text-rendering:geometricPrecision; image-rendering:optimizeQuality; fill-rule:evenodd; clip-rule:evenodd"
viewBox="0 0 5000 5000"
 xmlns:xlink="http://www.w3.org/1999/xlink">
 <defs>
  <style type="text/css">
   <![CDATA[
    .fil0 {fill:#D1D1D1}
   ]]>
  </style>
 </defs>
 <g id="Layer_x0020_1">
  <metadata id="CorelCorpID_0Corel-Layer"/>
  <g id="_816454080">
   <g>
    <g>
     <path class="fil0" d="M816 2637l3361 0 0 -1819 -3361 0 0 1819zm138 -1682l3086 0 0 1544 -3086 0 0 -1544z"/>
    </g>
   </g>
   <g>
    <g>
     <path class="fil0" d="M1027 1028l0 1398 2940 0 0 -1398 -2940 0zm2803 1261l-2666 0 0 -1124 2666 0 0 1124z"/>
    </g>
   </g>
   <g>
    <g>
     <rect class="fil0" x="3549" y="1309" width="137" height="137"/>
    </g>
   </g>
   <g>
    <g>
     <rect class="fil0" x="3549" y="2005" width="137" height="137"/>
    </g>
   </g>
   <g>
    <g>
     <rect class="fil0" x="1305" y="1309" width="147" height="137"/>
    </g>
   </g>
   <g>
    <g>
     <rect class="fil0" x="1305" y="2005" width="147" height="137"/>
    </g>
   </g>
   <g>
    <g>
     <polygon class="fil0" points="2285,256 2285,742 2422,742 2422,394 2578,394 2578,742 2715,742 2715,256 "/>
    </g>
   </g>
   <g>
    <g>
     <polygon class="fil0" points="2715,4606 2715,2711 2578,2711 2578,4606 2422,4606 2422,2711 2285,2711 2285,4606 261,4606 261,4744 4739,4744 4739,4606 "/>
    </g>
   </g>
   <g>
    <g>
     <path class="fil0" d="M1809 1687c-66,-25 -95,-39 -95,-72 0,-27 25,-49 75,-49 50,0 86,14 107,24l25 -93c-30,-14 -72,-26 -130,-26 -121,0 -194,67 -194,154 0,74 56,121 141,151 61,22 86,40 86,72 0,33 -29,55 -82,55 -49,0 -97,-16 -128,-32l-23 96c28,16 86,31 144,31 141,0 207,-73 207,-159 0,-72 -43,-119 -133,-152z"/>
    </g>
   </g>
   <g>
    <g>
     <path class="fil0" d="M2245 1471c-151,0 -249,114 -249,267 0,146 89,261 241,261 149,0 251,-102 251,-270 0,-141 -86,-258 -243,-258zm-2 436c-78,0 -125,-71 -125,-171 0,-99 46,-173 124,-173 80,0 124,78 124,170 0,99 -45,174 -123,174z"/>
    </g>
   </g>
   <g>
    <g>
     <polygon class="fil0" points="2679,1893 2679,1479 2563,1479 2563,1990 2883,1990 2883,1893 "/>
    </g>
   </g>
   <g>
    <g>
     <path class="fil0" d="M3316 1530c-49,-37 -112,-55 -209,-55 -58,0 -114,4 -156,11l0 502c29,4 71,8 131,8 100,0 182,-22 236,-66 49,-42 85,-110 85,-207 0,-91 -34,-154 -87,-193zm-209 375c-14,0 -30,0 -40,-2l0 -334c10,-3 26,-5 52,-5 100,0 162,56 161,162 0,122 -68,180 -173,179z"/>
    </g>
   </g>
   <g>
   </g>
   <g>
   </g>
   <g>
   </g>
   <g>
   </g>
   <g>
   </g>
   <g>
   </g>
   <g>
   </g>
   <g>
   </g>
   <g>
   </g>
   <g>
   </g>
   <g>
   </g>
   <g>
   </g>
   <g>
   </g>
   <g>
   </g>
   <g>
   </g>
  </g>
 </g>
</svg>
