<?xml version="1.0" encoding="UTF-8"?>
<!DOCTYPE svg PUBLIC "-//W3C//DTD SVG 1.1//EN" "http://www.w3.org/Graphics/SVG/1.1/DTD/svg11.dtd">
<!-- Creator: CorelDRAW X8 -->
<svg xmlns="http://www.w3.org/2000/svg" xml:space="preserve" width="5in" height="5in" version="1.1" style="shape-rendering:geometricPrecision; text-rendering:geometricPrecision; image-rendering:optimizeQuality; fill-rule:evenodd; clip-rule:evenodd"
viewBox="0 0 5000 5000"
 xmlns:xlink="http://www.w3.org/1999/xlink">
 <defs>
  <style type="text/css">
   <![CDATA[
    .fil0 {fill:#D1D1D1}
   ]]>
  </style>
 </defs>
 <g id="Layer_x0020_1">
  <metadata id="CorelCorpID_0Corel-Layer"/>
  <g id="_820082080">
   <path class="fil0" d="M4463 3773l-752 -326c-18,-9 -37,-30 -54,-59l502 0c8,0 215,19 381,-52 63,-27 110,-80 129,-147 18,-66 6,-137 -33,-194 -144,-204 -478,-737 -489,-1278 0,-9 -30,-929 -939,-937 -134,1 -257,24 -370,66 -25,-63 -61,-128 -114,-189 -158,-181 -415,-272 -762,-272 -348,0 -604,91 -762,271 -183,208 -166,460 -161,502l0 409c-50,56 -77,128 -77,202l0 308c0,94 42,181 115,239 70,279 218,489 269,557l0 254c0,75 -40,143 -106,179l-686 374c-223,122 -361,355 -361,609l0 326 3384 0 154 0 1076 0 0 -284c0,-238 -132,-452 -344,-558zm-886 688l-3231 0 0 -172c0,-198 108,-379 282,-474l686 -374c115,-63 186,-183 186,-314l0 -309 -18 -21c-2,-3 -190,-231 -262,-544l-7 -30 -26 -17c-45,-29 -71,-77 -71,-129l0 -308c0,-43 18,-83 51,-113l25 -23 0 -479 0 -10c0,-2 -27,-215 123,-386 128,-146 345,-219 647,-219 300,0 517,73 645,217 63,72 95,152 111,221 1,5 2,10 3,16 1,5 3,11 3,16 1,6 2,12 3,17 1,4 1,9 2,12 1,10 2,19 3,28 0,0 0,1 0,2 0,8 1,16 1,23 0,1 0,3 0,4 0,6 0,12 0,18 0,1 0,1 0,2 0,18 -2,29 -2,29l0 489 25 23c33,30 52,70 52,113l0 308c0,67 -44,126 -110,146l-38 12 -12 38c-52,160 -125,308 -218,439 -23,33 -45,61 -65,83l-19 22 0 317c0,20 2,39 5,58 1,4 2,8 3,12 3,15 7,30 11,45 2,3 3,7 4,10 6,16 13,32 21,47 1,1 2,3 3,5 11,19 24,38 39,55l17 22 3 0c27,26 57,49 91,66l735 367c184,92 299,277 299,483l0 157zm1077 0l-923 0 0 -157c0,-264 -147,-502 -384,-620l-527 -264c13,-30 14,-64 3,-97 -19,-54 -68,-89 -125,-89l-171 0c-3,-6 -6,-13 -9,-20 -3,-8 -8,-17 -11,-26 -4,-17 -7,-35 -7,-54l0 -260c18,-21 36,-46 55,-73 96,-134 172,-284 228,-446 108,-50 178,-157 178,-278l0 -308c0,-74 -27,-145 -76,-202l0 -409c2,-19 6,-82 -7,-164 99,-39 210,-59 330,-60 757,6 785,754 785,786 12,583 365,1148 517,1364 13,18 17,41 11,63 -4,13 -14,36 -42,48 -129,55 -304,40 -313,39l-529 0c-50,0 -95,25 -121,67 -26,42 -28,93 -7,137 24,49 67,114 137,149l750 324c159,81 258,241 258,420l0 130z"/>
   <g>
   </g>
   <g>
   </g>
   <g>
   </g>
   <g>
   </g>
   <g>
   </g>
   <g>
   </g>
   <g>
   </g>
   <g>
   </g>
   <g>
   </g>
   <g>
   </g>
   <g>
   </g>
   <g>
   </g>
   <g>
   </g>
   <g>
   </g>
   <g>
   </g>
  </g>
 </g>
</svg>
