<?xml version="1.0" encoding="iso-8859-1"?>
<!-- Generator: Adobe Illustrator 19.0.0, SVG Export Plug-In . SVG Version: 6.00 Build 0)  -->
<svg xmlns="http://www.w3.org/2000/svg" xmlns:xlink="http://www.w3.org/1999/xlink" version="1.1" id="Capa_1" x="0px" y="0px" viewBox="0 0 512 512" style="enable-background:new 0 0 512 512;" xml:space="preserve" width="512px" height="512px">
<g>
	<g>
		<path d="M487.941,215.133c-0.173-1.74-0.967-3.364-2.2-4.598c0,0-45.618-44.957-45.862-45.143V71.589    c0-4.151-3.364-7.516-7.516-7.516h-95.156c-0.097-0.107-0.189-0.217-0.294-0.32l-53.818-53.08    c-0.054-0.053-0.108-0.105-0.163-0.156c-15.103-14.023-38.764-14.023-53.867,0c-0.055,0.051-0.109,0.104-0.163,0.156    l-53.817,53.079c-0.104,0.103-0.197,0.213-0.295,0.321H79.635c-4.152,0-7.516,3.365-7.516,7.516v93.87    c-0.334,0.235-45.862,45.077-45.862,45.077c-1.416,1.416-2.238,3.343-2.238,5.351v288.597c0,4.151,3.364,7.516,7.516,7.516    h448.929c4.152,0,7.516-3.365,7.516-7.516C487.98,504.484,487.968,215.383,487.941,215.133z M439.88,186.416l22.261,21.955H439.88    V186.416z M239.372,21.46c9.345-8.603,23.91-8.603,33.257,0l43.206,42.613h-119.67L239.372,21.46z M87.151,79.104h337.698v33.068    H87.151V79.104z M87.151,175.303h262.042c4.152,0,7.516-3.365,7.516-7.516s-3.364-7.516-7.516-7.516H87.151v-33.068h337.698    v33.068h-40.584c-4.152,0-7.516,3.365-7.516,7.516s3.364,7.516,7.516,7.516h40.584v33.068H320.132    c-4.152,0-7.516,3.365-7.516,7.516c0,31.219-25.398,56.617-56.617,56.617s-56.617-25.399-56.617-56.617    c0-4.151-3.364-7.516-7.516-7.516H87.151V175.303z M72.119,186.416v21.955h-22.26L72.119,186.416z M472.948,496.968H39.051    V223.403h145.692c3.767,35.989,34.287,64.133,71.256,64.133c36.969,0,67.491-28.143,71.256-64.133h145.692V496.968z" fill="#FFFFFF"/>
	</g>
</g>
<g>
	<g>
		<path d="M63.602,232.822c-4.152,0-7.516,3.365-7.516,7.516v12.225c0,4.151,3.364,7.515,7.516,7.515s7.516-3.365,7.516-7.515    v-12.225C71.117,236.187,67.753,232.822,63.602,232.822z" fill="#FFFFFF"/>
	</g>
</g>
<g>
	<g>
		<path d="M63.602,269.498c-4.152,0-7.516,3.365-7.516,7.516v12.225c0,4.151,3.364,7.516,7.516,7.516s7.516-3.365,7.516-7.516    v-12.225C71.117,272.863,67.753,269.498,63.602,269.498z" fill="#FFFFFF"/>
	</g>
</g>
<g>
	<g>
		<path d="M63.602,306.174c-4.152,0-7.516,3.365-7.516,7.516v12.225c0,4.151,3.364,7.516,7.516,7.516s7.516-3.365,7.516-7.516    v-12.225C71.117,309.539,67.753,306.174,63.602,306.174z" fill="#FFFFFF"/>
	</g>
</g>
<g>
	<g>
		<path d="M63.602,379.525c-4.152,0-7.516,3.365-7.516,7.516v12.225c0,4.151,3.364,7.516,7.516,7.516s7.516-3.365,7.516-7.516    v-12.225C71.117,382.89,67.753,379.525,63.602,379.525z" fill="#FFFFFF"/>
	</g>
</g>
<g>
	<g>
		<path d="M63.602,416.201c-4.152,0-7.516,3.365-7.516,7.516v12.225c0,4.151,3.364,7.516,7.516,7.516s7.516-3.365,7.516-7.516    v-12.225C71.117,419.566,67.753,416.201,63.602,416.201z" fill="#FFFFFF"/>
	</g>
</g>
<g>
	<g>
		<path d="M63.602,342.85c-4.152,0-7.516,3.365-7.516,7.516v12.225c0,4.151,3.364,7.516,7.516,7.516s7.516-3.365,7.516-7.516    v-12.225C71.117,346.215,67.753,342.85,63.602,342.85z" fill="#FFFFFF"/>
	</g>
</g>
<g>
	<g>
		<path d="M63.602,450.873c-4.152,0-7.516,3.365-7.516,7.516v14.029c0,4.151,3.364,7.516,7.516,7.516s7.516-3.365,7.516-7.516    v-14.029C71.117,454.238,67.753,450.873,63.602,450.873z" fill="#FFFFFF"/>
	</g>
</g>
<g>
	<g>
		<path d="M419.087,464.902h-11.649c-4.152,0-7.516,3.365-7.516,7.516c0,4.151,3.365,7.516,7.516,7.516h11.649    c4.152,0,7.516-3.365,7.516-7.516C426.603,468.267,423.239,464.902,419.087,464.902z" fill="#FFFFFF"/>
	</g>
</g>
<g>
	<g>
		<path d="M314.245,464.902h-11.649c-4.152,0-7.516,3.365-7.516,7.516c0,4.151,3.364,7.516,7.516,7.516h11.649    c4.152,0,7.516-3.365,7.516-7.516C321.761,468.267,318.397,464.902,314.245,464.902z" fill="#FFFFFF"/>
	</g>
</g>
<g>
	<g>
		<path d="M349.193,464.902h-11.649c-4.152,0-7.516,3.365-7.516,7.516c0,4.151,3.365,7.516,7.516,7.516h11.649    c4.152,0,7.516-3.365,7.516-7.516C356.708,468.267,353.344,464.902,349.193,464.902z" fill="#FFFFFF"/>
	</g>
</g>
<g>
	<g>
		<path d="M104.562,464.902H92.912c-4.152,0-7.516,3.365-7.516,7.516c0,4.151,3.364,7.516,7.516,7.516h11.649    c4.152,0,7.516-3.365,7.516-7.516C112.077,468.267,108.713,464.902,104.562,464.902z" fill="#FFFFFF"/>
	</g>
</g>
<g>
	<g>
		<path d="M384.14,464.902h-11.649c-4.152,0-7.516,3.365-7.516,7.516c0,4.151,3.365,7.516,7.516,7.516h11.649    c4.152,0,7.516-3.365,7.516-7.516C391.655,468.267,388.291,464.902,384.14,464.902z" fill="#FFFFFF"/>
	</g>
</g>
<g>
	<g>
		<path d="M209.403,464.902h-11.649c-4.152,0-7.516,3.365-7.516,7.516c0,4.151,3.364,7.516,7.516,7.516h11.649    c4.152,0,7.516-3.365,7.516-7.516C216.919,468.267,213.555,464.902,209.403,464.902z" fill="#FFFFFF"/>
	</g>
</g>
<g>
	<g>
		<path d="M174.456,464.902h-11.649c-4.152,0-7.516,3.365-7.516,7.516c0,4.151,3.364,7.516,7.516,7.516h11.649    c4.152,0,7.516-3.365,7.516-7.516C181.972,468.267,178.608,464.902,174.456,464.902z" fill="#FFFFFF"/>
	</g>
</g>
<g>
	<g>
		<path d="M139.509,464.902H127.86c-4.152,0-7.516,3.365-7.516,7.516c0,4.151,3.364,7.516,7.516,7.516h11.649    c4.152,0,7.516-3.365,7.516-7.516C147.024,468.267,143.66,464.902,139.509,464.902z" fill="#FFFFFF"/>
	</g>
</g>
<g>
	<g>
		<path d="M244.351,464.902h-11.649c-4.152,0-7.516,3.365-7.516,7.516c0,4.151,3.364,7.516,7.516,7.516h11.649    c4.152,0,7.516-3.365,7.516-7.516C251.866,468.267,248.502,464.902,244.351,464.902z" fill="#FFFFFF"/>
	</g>
</g>
<g>
	<g>
		<path d="M279.298,464.902h-11.649c-4.152,0-7.516,3.365-7.516,7.516c0,4.151,3.364,7.516,7.516,7.516h11.649    c4.152,0,7.516-3.365,7.516-7.516C286.813,468.267,283.45,464.902,279.298,464.902z" fill="#FFFFFF"/>
	</g>
</g>
<g>
	<g>
		<path d="M448.398,450.873c-4.152,0-7.516,3.365-7.516,7.516v14.029c0,4.151,3.365,7.516,7.516,7.516    c4.152,0,7.516-3.365,7.516-7.516v-14.029C455.913,454.238,452.549,450.873,448.398,450.873z" fill="#FFFFFF"/>
	</g>
</g>
<g>
	<g>
		<path d="M448.398,341.848c-4.152,0-7.516,3.365-7.516,7.516v12.225c0,4.151,3.365,7.516,7.516,7.516    c4.152,0,7.516-3.365,7.516-7.516v-12.225C455.913,345.212,452.549,341.848,448.398,341.848z" fill="#FFFFFF"/>
	</g>
</g>
<g>
	<g>
		<path d="M448.398,268.496c-4.152,0-7.516,3.365-7.516,7.516v12.225c0,4.151,3.365,7.516,7.516,7.516    c4.152,0,7.516-3.365,7.516-7.516v-12.225C455.913,271.861,452.549,268.496,448.398,268.496z" fill="#FFFFFF"/>
	</g>
</g>
<g>
	<g>
		<path d="M448.398,231.82c-4.152,0-7.516,3.365-7.516,7.516v12.225c0,4.151,3.365,7.516,7.516,7.516    c4.152,0,7.516-3.365,7.516-7.516v-12.225C455.913,235.185,452.549,231.82,448.398,231.82z" fill="#FFFFFF"/>
	</g>
</g>
<g>
	<g>
		<path d="M448.398,378.523c-4.152,0-7.516,3.365-7.516,7.516v12.225c0,4.151,3.365,7.516,7.516,7.516    c4.152,0,7.516-3.365,7.516-7.516v-12.225C455.913,381.888,452.549,378.523,448.398,378.523z" fill="#FFFFFF"/>
	</g>
</g>
<g>
	<g>
		<path d="M448.398,305.172c-4.152,0-7.516,3.365-7.516,7.516v12.225c0,4.151,3.365,7.516,7.516,7.516    c4.152,0,7.516-3.365,7.516-7.516v-12.225C455.913,308.537,452.549,305.172,448.398,305.172z" fill="#FFFFFF"/>
	</g>
</g>
<g>
	<g>
		<path d="M448.398,415.199c-4.152,0-7.516,3.365-7.516,7.516v12.225c0,4.151,3.365,7.516,7.516,7.516    c4.152,0,7.516-3.365,7.516-7.516v-12.225C455.913,418.564,452.549,415.199,448.398,415.199z" fill="#FFFFFF"/>
	</g>
</g>
<g>
	<g>
		<path d="M320.132,392.753H191.867c-4.152,0-7.516,3.365-7.516,7.516c0,4.151,3.364,7.516,7.516,7.516h128.265    c4.152,0,7.516-3.365,7.516-7.516C327.648,396.118,324.284,392.753,320.132,392.753z" fill="#FFFFFF"/>
	</g>
</g>
<g>
</g>
<g>
</g>
<g>
</g>
<g>
</g>
<g>
</g>
<g>
</g>
<g>
</g>
<g>
</g>
<g>
</g>
<g>
</g>
<g>
</g>
<g>
</g>
<g>
</g>
<g>
</g>
<g>
</g>
</svg>
